<svg xmlns="http://www.w3.org/2000/svg" width="20.344" height="20.344" viewBox="0 0 20.344 20.344">
  <path id="ic-guide" d="M20.672-7.875A10.173,10.173,0,0,0,10.5-18.047,10.173,10.173,0,0,0,.328-7.875,10.171,10.171,0,0,0,10.5,2.3,10.171,10.171,0,0,0,20.672-7.875Zm-9.9-6.809c2.312,0,4.78,1.8,4.78,4.184,0,3.159-3.412,3.208-3.412,4.375v.055a.492.492,0,0,1-.492.492h-2.3a.492.492,0,0,1-.492-.492v-.164c0-1.684,1.277-2.357,2.242-2.9.827-.464,1.334-.779,1.334-1.394,0-.813-1.036-1.352-1.874-1.352-1.115,0-1.618.539-2.35,1.468a.492.492,0,0,1-.684.087L6.1-11.4a.493.493,0,0,1-.111-.667A5.313,5.313,0,0,1,10.773-14.684ZM10.5-4.512a1.889,1.889,0,0,1,1.887,1.887A1.889,1.889,0,0,1,10.5-.738,1.889,1.889,0,0,1,8.613-2.625,1.889,1.889,0,0,1,10.5-4.512Z" transform="translate(-0.328 18.047)" fill="#ccc5c6"/>
</svg>
