<svg xmlns="http://www.w3.org/2000/svg" width="20" height="20" viewBox="0 0 20 20">
  <g id="ic-history" transform="translate(-443.141 -142.239)">
    <path id="Path_3" data-name="Path 3" d="M453.148,162.239a9.957,9.957,0,0,1-6.283-2.214.967.967,0,0,1-.074-1.436l.454-.454a.969.969,0,0,1,1.286-.08,7.42,7.42,0,1,0-.474-11.222l2.046,2.047a.645.645,0,0,1-.456,1.1h-5.862a.645.645,0,0,1-.645-.645v-5.862a.645.645,0,0,1,1.1-.456l1.991,1.991a10,10,0,1,1,6.915,17.23Z" transform="translate(0)" fill="#ccc5c6"/>
    <path id="Path_4" data-name="Path 4" d="M504.116,184.542l-3.165-2.462v-6.564a1.161,1.161,0,0,1,1.161-1.161h.774a1.161,1.161,0,0,1,1.161,1.161v5.049l1.969,1.532a1.161,1.161,0,0,1,.2,1.63l-.475.611A1.161,1.161,0,0,1,504.116,184.542Z" transform="translate(-49.62 -28.021)" fill="#ccc5c6" opacity="0.5"/>
  </g>
</svg>
