<svg xmlns="http://www.w3.org/2000/svg" width="22.5" height="20" viewBox="0 0 22.5 20">
  <g id="ic-stats" transform="translate(-1303 -134.5)">
    <path id="Path_33" data-name="Path 33" d="M15.625-5h-2.5a.625.625,0,0,0-.625.625v6.25a.625.625,0,0,0,.625.625h2.5a.625.625,0,0,0,.625-.625v-6.25A.625.625,0,0,0,15.625-5Zm6.25-5h-2.5a.625.625,0,0,0-.625.625V1.875a.625.625,0,0,0,.625.625h2.5a.625.625,0,0,0,.625-.625V-9.375A.625.625,0,0,0,21.875-10Zm-12.5,0h-2.5a.625.625,0,0,0-.625.625V1.875a.625.625,0,0,0,.625.625h2.5A.625.625,0,0,0,10,1.875V-9.375A.625.625,0,0,0,9.375-10ZM3.125-3.75H.625A.625.625,0,0,0,0-3.125v5A.625.625,0,0,0,.625,2.5h2.5a.625.625,0,0,0,.625-.625v-5A.625.625,0,0,0,3.125-3.75Z" transform="translate(1303 152)" fill="#ccc5c6"/>
    <path id="Path_75" data-name="Path 75" d="M19.946-13.882a1.86,1.86,0,0,0,.679.132A1.875,1.875,0,0,0,22.5-15.625,1.875,1.875,0,0,0,20.625-17.5a1.875,1.875,0,0,0-1.875,1.875,1.9,1.9,0,0,0,.028.277l-3.724,2.979a1.859,1.859,0,0,0-.679-.132,1.86,1.86,0,0,0-.679.132L9.972-15.348A1.855,1.855,0,0,0,10-15.625,1.875,1.875,0,0,0,8.125-17.5,1.875,1.875,0,0,0,6.25-15.625a1.87,1.87,0,0,0,.07.48L2.355-11.18a1.87,1.87,0,0,0-.48-.07A1.875,1.875,0,0,0,0-9.375,1.875,1.875,0,0,0,1.875-7.5,1.875,1.875,0,0,0,3.75-9.375a1.87,1.87,0,0,0-.07-.48L7.645-13.82a1.87,1.87,0,0,0,.48.07,1.86,1.86,0,0,0,.679-.132L12.528-10.9a1.855,1.855,0,0,0-.028.277A1.875,1.875,0,0,0,14.375-8.75a1.875,1.875,0,0,0,1.875-1.875,1.9,1.9,0,0,0-.028-.277Z" transform="translate(1303 152)" fill="#ccc5c6" opacity="0.5"/>
  </g>
</svg>
