<svg xmlns="http://www.w3.org/2000/svg" width="24" height="25.567" viewBox="0 0 24 25.567">
  <g id="ic-ticket-active" transform="translate(-767.164 -270.61)">
    <path id="Path_1" data-name="Path 1" d="M790.606,286.341l-1.716-1.717c-.019.021-.037.044-.058.064a1.817,1.817,0,0,1-2.57-2.57c.021-.021.043-.039.064-.058l-1.839-1.839a1.9,1.9,0,0,0-2.692,0l-3.671,3.671a.865.865,0,0,1-1.224,1.224l-9.178,9.178a1.9,1.9,0,0,0,0,2.692l1.839,1.839c.019-.021.037-.044.058-.064a1.817,1.817,0,0,1,2.57,2.57c-.021.021-.043.039-.064.058l1.717,1.716a1.9,1.9,0,0,0,2.692,0l9.191-9.191a.865.865,0,0,1,1.2-1.2l3.684-3.684A1.9,1.9,0,0,0,790.606,286.341Zm-10.28.979a.865.865,0,1,1,0-1.224A.866.866,0,0,1,780.327,287.32Zm2.2,2.2a.865.865,0,1,1,0-1.224A.866.866,0,0,1,782.529,289.522Zm2.2,2.2a.865.865,0,1,1,0-1.224A.866.866,0,0,1,784.732,291.725Z" transform="translate(0 -7.487)" fill="#4d61e5"/>
    <path id="Path_2" data-name="Path 2" d="M778.717,277.129a.823.823,0,1,0,.848-1.41l2.545-4.231a1.81,1.81,0,0,1,2.484-.618l2.258,1.358L773.622,285.6Z" transform="translate(-5.34)" fill="#4d61e5" opacity="0.5"/>
  </g>
</svg>
