<svg xmlns="http://www.w3.org/2000/svg" width="25.025" height="43" viewBox="0 0 25.025 43">
  <g id="pattern-star-jackpot-1" transform="translate(-153 -684)">
    <path id="Path_34" data-name="Path 34" d="M-733.536,718.352l-1.282-2.6-.182.368v6.272l.182-.1,2.565,1.348-.49-2.856,2.075-2.022Z" transform="translate(888 -15.51)" fill="#fbdbe2"/>
    <path id="Path_35" data-name="Path 35" d="M-709.939,742.887-710.87,741l-.931,1.887-2.082.3,1.507,1.469-.356,2.074,1.862-.979,1.862.979-.356-2.074,1.507-1.469Z" transform="translate(877.046 -28.606)" fill="#fbdbe2"/>
    <path id="Path_36" data-name="Path 36" d="M-734.131,763.951l-.687-1.393-.182.368v3.236l.182-.1,1.375.723-.263-1.531,1.112-1.084Z" transform="translate(888 -39.79)" fill="#fbdbe2"/>
    <path id="Path_37" data-name="Path 37" d="M-685.2,766.559v-3.236l-.506,1.025-1.537.223,1.112,1.084-.263,1.531Z" transform="translate(863.227 -40.187)" fill="#fbdbe2"/>
    <path id="Path_38" data-name="Path 38" d="M-712.274,685.787-714.144,682l-1.869,3.788-4.18.608,3.025,2.948-.714,4.163,3.739-1.966,3.739,1.966-.714-4.163,3.025-2.948Z" transform="translate(880.319 2.001)" fill="#fbdbe2"/>
    <path id="Path_39" data-name="Path 39" d="M-687.277,722.791v-6.272l-1.1,2.23-2.867.417,2.075,2.022-.49,2.856Z" transform="translate(865.302 -15.907)" fill="#fbdbe2"/>
  </g>
</svg>
