<svg xmlns="http://www.w3.org/2000/svg" width="32.762" height="56.295" viewBox="0 0 32.762 56.295">
  <g id="pattern-jackpot-bg" transform="translate(735 -681.999)" opacity="0.1">
    <path id="Path_6" data-name="Path 6" d="M-733.083,719.156l-1.679-3.4-.238.482v8.211l.238-.125,3.357,1.765-.641-3.739,2.716-2.648Z" transform="translate(0 -12.488)" fill="#fff"/>
    <path id="Path_7" data-name="Path 7" d="M-708.72,743.47l-1.219-2.47-1.219,2.47-2.726.4,1.972,1.923-.466,2.715,2.438-1.282,2.438,1.282-.466-2.715,1.972-1.923Z" transform="translate(-7.812 -21.828)" fill="#fff"/>
    <path id="Path_8" data-name="Path 8" d="M-733.862,764.382l-.9-1.823-.238.482v4.236l.238-.125,1.8.946-.344-2,1.456-1.419Z" transform="translate(0 -29.804)" fill="#fff"/>
    <path id="Path_9" data-name="Path 9" d="M-684.57,767.56v-4.236l-.662,1.342-2.012.292,1.456,1.419-.344,2Z" transform="translate(-17.667 -30.087)" fill="#fff"/>
    <path id="Path_10" data-name="Path 10" d="M-709.826,686.958-712.273,682l-2.447,4.959-5.473.8,3.96,3.86-.935,5.451,4.895-2.573,4.895,2.573-.935-5.451,3.96-3.86Z" transform="translate(-5.478)" fill="#fff"/>
    <path id="Path_11" data-name="Path 11" d="M-686.05,724.73v-8.211l-1.441,2.919-3.754.545,2.716,2.648-.641,3.739Z" transform="translate(-16.188 -12.771)" fill="#fff"/>
  </g>
</svg>
